# xmcd
#
# Track frame offsets:
#	150
#	11710
#	25568
#	36095
#	51075
#	70698
#	85880
#	107480
#	123505
#	145280
#
# Disc length: 2201 seconds
# Revision: 6
# Processed by: cddbd v1.5.2PL0 Copyright (c) Steve Scherf et al.
# Submitted via: dBpowerAMP V12.0
#
DISCID=7b08970a
DTITLE=Willie Nelson - Super Hits
DYEAR=1994
DGENRE=Country
TTITLE0=On The Road Again
TTITLE1=My Heroes Have Always Been Cowboys
TTITLE2=Blue Eyes Crying In The Rain
TTITLE3=Nothing I Can Do About It Now
TTITLE4=Georgia On My Mind
TTITLE5=Living In The Promiseland
TTITLE6=Pancho And Lefty
TTITLE7=Always On My Mind
TTITLE8=City Of New Orleans
TTITLE9=Angel Flying Too Close To The Ground
EXTD=
EXTT0=
EXTT1=
EXTT2=
EXTT3=
EXTT4=
EXTT5=
EXTT6=
EXTT7=
EXTT8=
EXTT9=
PLAYORDER=
